# xmcd
#
# Track frame offsets: 
#        150
#        15915
#        36757
#        50592
#        66275
#        78167
#        96890
#        112002
#        126597
#        139202
#        154477
#        172905
#        187387
#        206957
#        220255
#        246440
#
# Disc length: 3298 seconds
#
# Revision: 0
# Processed by: cddbd v1.5.1PL0 Copyright (c) Steve Scherf et al.
# Submitted via: ExactAudioCopy v0.95a5
#
DISCID=f50ce010
DTITLE=Various Artist - The Brick 3 SC 7551
DYEAR=1900
DGENRE=Karaoke Country
TTITLE0=The Forester Sisters - I Fell in Love Again Last Night
TTITLE1=Kenny Rogers - Coward of the County
TTITLE2=John Conlee - Common Man
TTITLE3=Don Williams - Amanda
TTITLE4=George Strait - Unwound
TTITLE5=Glenn Campbell - Rhinestone Cowboy
TTITLE6=Tanya Tucker - Blood Red and Goin' Down
TTITLE7=Garth Brooks - Much Too Young (To Feel This Damn Old)
TTITLE8=Hank Williams - Gonna Go Huntin' Tonight
TTITLE9=Dolly Parton - Two Doors Down
TTITLE10=Dwight Yoakam - I Sang Dixie
TTITLE11=Waylon Jennings - Clyde
TTITLE12=Reba McEntire - Just a Little Love
TTITLE13=Hank Williams Jr. - Stoned at the Jukebox
TTITLE14=Highway 101 - Whiskey, If You Were a Woman
TTITLE15=data
EXTD=
EXTT0=
EXTT1=
EXTT2=
EXTT3=
EXTT4=
EXTT5=
EXTT6=
EXTT7=
EXTT8=
EXTT9=
EXTT10=
EXTT11=
EXTT12=
EXTT13=
EXTT14=
EXTT15=
PLAYORDER=
